<svg version="1.1" id="Capa_1" x="0px" y="0px"><path d="M122.268,68.085c2.924,0,5.704-1.721 6.913-4.584c1.611-3.816-0.176-8.215-3.991-9.827l-21.372-9.025 c-3.816-1.612-8.215,0.176-9.827,3.991c-1.611,3.816,0.176,8.215,3.991,9.827l21.372,9.025 C120.307,67.895,121.295,68.085,122.268,68.085z"/><path d="M433.8,88.115h-28.384c9.407-9.345,15.242-22.282,15.242-36.558C420.658,23.129,397.529,0,369.1,0 c-7.336,0-14.454,1.524-21.17,4.535l-43.122,19.442l-32.534,14.679v-2.589c0-4.142-3.358-7.5-7.5-7.5h-59.548 c-4.142,0-7.5,3.358-7.5,7.5v2.59l-75.67-34.129C115.354,1.524,108.236,0,100.9,0C72.471,0,49.342,23.129,49.342,51.558 c0,14.276,5.835,27.212,15.242,36.558H36.2c-4.142,0-7.5,3.358-7.5,7.5v71.791c0,4.142,3.358,7.5,7.5,7.5h3.874V462.5 c0,4.142,3.358,7.5,7.5,7.5h374.853c4.142,0,7.5-3.358,7.5-7.5V174.906h3.874c4.142,0,7.5-3.358,7.5-7.5V95.615 C441.3,91.473,437.942,88.115,433.8,88.115z M264.774,395c-4.142,0-7.5,3.358-7.5,7.5V455h-44.548V174.906h44.548V372.5 c0,4.142,3.358,7.5,7.5,7.5s7.5-3.358,7.5-7.5V174.906h142.652V455H272.274v-52.5C272.274,398.358,268.916,395,264.774,395z  M64.342,51.558C64.342,31.4,80.742,15,100.9,15c5.207,0,10.26,1.082,15.005,3.21c24.609,11.094,68.01,30.662,81.821,36.9v29.197 l-44.899-18.961c-3.816-1.612-8.215,0.176-9.827,3.991c-1.611,3.816,0.176,8.215,3.991,9.827l21.197,8.952H100.9 C80.742,88.115,64.342,71.716,64.342,51.558z M405.658,51.558c0,20.158-16.4,36.558-36.558,36.558h-67.288l70.206-29.648 c3.815-1.612,5.603-6.011,3.991-9.827s-6.011-5.604-9.827-3.991l-93.908,39.658V55.109c13.811-6.237,57.21-25.805,81.807-36.894 C358.84,16.082,363.893,15,369.1,15C389.258,15,405.658,31.4,405.658,51.558z M426.3,159.906H282.274v-56.791H426.3V159.906z  M212.726,50.592c0.016-0.275,0.017-0.562,0-0.86v-6.165h44.548v6.165c-0.017,0.298-0.016,0.585,0,0.86v37.523h-44.548V50.592z  M205.183,103.115c0.066,0,59.568,0,59.568,0c0.066,0,2.523,0,2.523,0v56.791h-64.548v-56.791H205.183z M187.726,103.115v56.791 H43.7v-56.791H187.726z M55.074,174.906h142.652V455H55.074V174.906z"/></svg>